<?xml version="1.0" encoding="UTF-8"?>
<svg xmlns="http://www.w3.org/2000/svg" viewBox="0 0 238 480">
  <path d="M130.64,19.78h-24.74c-.8,0-1.45-.65-1.45-1.45h0c0-.8,.65-1.45,1.45-1.45h24.74c.8,0,1.45,.65,1.45,1.45h0c0,.8-.65,1.45-1.45,1.45Z" style="fill: #fff; stroke: #fff; stroke-miterlimit: 10;"/>
  <path d="M208.64,4.05c-.25-.02-.52-.05-.76-.07-.26-.02-.52-.03-.78-.05h0c-.49-.03-.97-.04-1.46-.04H32.38c-.5,0-.98,.01-1.46,.04h-.02C15.88,4.71,3.91,17.16,3.91,32.35V447.65c0,14.61,11.07,26.68,25.27,28.28-.2-.02-.38-.03-.58-.05,.51,.06,1.01,.1,1.52,.14,.26,.02,.52,.03,.78,.05,.49,.03,.98,.04,1.48,.04H205.62c.5,0,.98-.01,1.47-.04,.26-.01,.52-.03,.78-.05,.31-.03,.63-.05,.94-.09,.44-.05,.89-.11,1.32-.18,.22-.03,.43-.07,.65-.11,.22-.04,.44-.08,.65-.13,.65-.13,1.29-.29,1.92-.46,.21-.06,.42-.12,.63-.19,.41-.12,.82-.26,1.23-.41,.61-.22,1.21-.46,1.81-.72,.2-.08,.39-.17,.59-.27,.19-.08,.39-.18,.57-.27,.38-.19,.76-.39,1.14-.59,.37-.21,.74-.42,1.11-.65,.33-.2,.65-.41,.98-.62,.03-.02,.07-.05,.1-.07,.53-.36,1.04-.73,1.55-1.12,.17-.12,.34-.25,.5-.4,.47-.38,.93-.77,1.37-1.18,1.09-1.02,2.11-2.11,3.03-3.28,.13-.16,.26-.34,.39-.5,1.33-1.77,2.47-3.69,3.37-5.73,.14-.33,.28-.66,.4-.99,.64-1.62,1.14-3.31,1.47-5.05,.07-.34,.12-.69,.18-1.04,.21-1.41,.32-2.84,.32-4.3V32.35c0-14.67-11.17-26.79-25.45-28.3Zm14.39,444.03c0,8.99-7.02,16.59-15.98,17.29-.09,0-.16,.01-.23,.02h-.11s-.1,0-.1,0h-.04c-.3,.02-.6,.03-.9,.03H32.39c-.3,0-.6-.01-.9-.02h-.04s-.1,0-.1,0h-.05s-.06,0-.06,0c-.07,0-.14-.01-.23-.02-8.96-.7-15.98-8.3-15.98-17.29V32.76c0-9.14,7.11-16.71,16.21-17.31h.16l.23-.02c.28-.01,.53-.01,.76-.01h25c1.43,.07,2.59,1.18,2.73,2.59,0,.1,.01,.19,.01,.29v.04c.34,7.32,6.39,13.15,13.8,13.15h90.2c7.41,0,13.45-5.83,13.8-13.15v-.04c0-.1,0-.2,.01-.29,.14-1.41,1.3-2.52,2.73-2.59h25c.23,0,.49,0,.76,.01l.23,.02h.16c9.1,.59,16.21,8.16,16.21,17.31V448.08Z" style="fill: #212121;"/>
</svg>
