<?xml version="1.0" encoding="utf-8"?>
<!-- Generator: Adobe Illustrator 27.0.0, SVG Export Plug-In . SVG Version: 6.00 Build 0)  -->
<svg version="1.1" id="Layer_1" xmlns="http://www.w3.org/2000/svg" xmlns:xlink="http://www.w3.org/1999/xlink" x="0px" y="0px"
	 viewBox="0 0 105.1 42.5" style="enable-background:new 0 0 105.1 42.5;" xml:space="preserve">
<style type="text/css">
	.st0{fill:#FFFFFF;}
</style>
<g>
	<path d="M23.3,7.8c0.1-1.5,1.1-2.1,2.6-2.1c1.1,0,2.4,0.3,2.4,2.1v3.4c0,0.2,0.1,0.4,0.4,0.5c0,0,0.1,0,0.1,0c0.1,0,0.2,0,0.2,0
		v0.6c-0.2,0-0.3,0-0.5,0c-0.8,0-0.9-0.4-0.9-1.1l0,0c-0.4,0.9-1.4,1.4-2.3,1.3c-1.2,0-2.1-0.6-2.1-1.9c0-1.8,1.8-1.9,3.4-2.1
		c0.6-0.1,1-0.2,1-0.9c0-1-0.8-1.3-1.7-1.3s-1.7,0.4-1.7,1.5L23.3,7.8z M27.5,8.7L27.5,8.7C27.4,8.9,27,8.9,26.8,9
		c-1.3,0.2-3,0.2-3,1.5c0,0.7,0.7,1.3,1.4,1.3c0,0,0,0,0,0c1.1,0.1,2.1-0.7,2.2-1.9c0,0,0-0.1,0-0.1V8.7z"/>
	<path d="M35.1,12.2h-0.7v-1.1l0,0c-0.4,0.8-1.3,1.4-2.2,1.3c-1.6,0-2.2-0.9-2.2-2.4V5.8h0.8V10c0,1.1,0.5,1.8,1.7,1.8
		c1.2,0,1.9-1.3,1.9-2.6V5.8h0.8L35.1,12.2z"/>
	<path d="M40.5,7.7c0-1-0.8-1.4-1.7-1.4c-0.7,0-1.5,0.3-1.5,1.1s0.8,0.9,1.3,1.1l1,0.2c1,0,1.8,0.8,1.8,1.8c0,1.4-1.4,1.9-2.6,1.9
		c-1.3,0.2-2.4-0.7-2.6-2c0-0.1,0-0.2,0-0.3H37c0,0.9,0.8,1.6,1.7,1.6c0,0,0.1,0,0.1,0c0.7,0,1.8-0.3,1.8-1.2s-0.7-1-1.4-1.2l-1-0.2
		c-1-0.3-1.8-0.6-1.8-1.7c0-1.3,1.3-1.8,2.4-1.8c1.2-0.1,2.2,0.7,2.3,1.8c0,0.1,0,0.1,0,0.2L40.5,7.7z"/>
	<path d="M43.9,5.8h1.3v0.7h-1.3v4.3c0,0.5,0.1,0.8,0.6,0.8c0.2,0,0.4,0,0.7,0v0.7c-0.2,0-0.5,0-0.7,0c-1,0-1.4-0.4-1.4-1.4V6.5H42
		V5.8h1.1V3.9h0.8L43.9,5.8z"/>
	<path d="M46.3,5.8H47v1.5l0,0c0.4-1,1.3-1.7,2.4-1.6v0.8c-1.2-0.1-2.3,0.8-2.4,2c0,0.1,0,0.2,0,0.3v3.4h-0.8L46.3,5.8z"/>
	<path d="M50.3,3.3h0.8v1.2h-0.8V3.3z M50.3,5.8h0.8v6.4h-0.8V5.8z"/>
	<path d="M52.6,7.8c0.1-1.5,1.1-2.1,2.6-2.1c1.1,0,2.4,0.3,2.4,2.1v3.4c0,0.2,0.1,0.4,0.4,0.5c0,0,0.1,0,0.1,0c0.1,0,0.2,0,0.2,0
		v0.6c-0.2,0-0.3,0-0.5,0c-0.8,0-0.9-0.4-0.9-1.1l0,0c-0.4,0.9-1.4,1.4-2.3,1.3c-1.2,0-2.1-0.6-2.1-1.9c0-1.8,1.8-1.9,3.4-2.1
		c0.7-0.1,1-0.2,1-0.9c0-1-0.8-1.3-1.7-1.3s-1.7,0.4-1.7,1.5L52.6,7.8z M56.8,8.7L56.8,8.7c-0.1,0.2-0.4,0.2-0.7,0.3
		c-1.3,0.2-3,0.2-3,1.5c0,0.7,0.7,1.3,1.4,1.3c0,0,0,0,0,0c1.1,0.1,2.1-0.8,2.2-1.9c0,0,0-0.1,0-0.1V8.7z"/>
	<polygon points="0,18.7 0.8,18.7 2.5,24.2 2.5,24.2 4.1,18.7 4.9,18.7 6.5,24.2 6.5,24.2 8.2,18.7 9,18.7 6.9,25.1 6.1,25.1 
		4.5,19.7 4.5,19.7 2.9,25.1 2.1,25.1 	"/>
	<path d="M10,16.3h0.8v1.2H10V16.3z M10,18.7h0.8v6.4H10V18.7z"/>
	<path d="M12.3,18.7H13v1.5l0,0c0.4-1,1.3-1.7,2.4-1.6v0.8c-1.2-0.1-2.3,0.8-2.4,2c0,0.1,0,0.2,0,0.3v3.4h-0.8L12.3,18.7z"/>
	<path d="M17.9,18.7h1.3v0.7h-1.3v4.3c0,0.5,0.1,0.8,0.6,0.9c0.2,0,0.4,0,0.7,0v0.7h-0.7c-1,0-1.4-0.3-1.4-1.4v-4.4H16v-0.7h1.1
		v-1.9h0.8L17.9,18.7z"/>
	<path d="M24.1,20.6c0-0.8-0.7-1.4-1.5-1.4c0,0-0.1,0-0.1,0c-0.7,0-1.5,0.3-1.5,1.1s0.8,1,1.3,1.1l1,0.2c1,0,1.8,0.8,1.8,1.8
		c0,1.4-1.4,1.9-2.6,1.9c-1.3,0.2-2.4-0.7-2.6-2c0-0.1,0-0.2,0-0.3h0.8c0,0.9,0.8,1.6,1.7,1.6c0,0,0.1,0,0.1,0
		c0.7,0,1.8-0.3,1.8-1.2c0-0.7-0.7-1-1.4-1.2L22,22c-1-0.3-1.8-0.6-1.8-1.7c0-1.3,1.3-1.8,2.4-1.8c1.2-0.1,2.2,0.7,2.3,1.8
		c0,0.1,0,0.1,0,0.2L24.1,20.6z"/>
	<path d="M30.8,20.7c-0.1-0.9-0.9-1.6-1.8-1.5c-1.5,0-2.2,1.4-2.2,2.7s0.8,2.7,2.2,2.7c1,0,1.8-0.8,1.9-1.8h0.8
		c-0.1,1.4-1.2,2.5-2.6,2.5c-2,0-3-1.5-3-3.4s1.1-3.4,3-3.4c1.3-0.1,2.5,0.9,2.6,2.2c0,0,0,0,0,0H30.8z"/>
	<path d="M32.8,16.3h0.8v3.6l0,0c0.4-0.8,1.2-1.3,2-1.3c1.8,0,2.3,1,2.3,2.5v4.1h-0.8v-4c0-1.1-0.4-1.9-1.6-1.9c-1.1,0-2,0.9-2,2
		c0,0.1,0,0.1,0,0.2v3.7h-0.8L32.8,16.3z"/>
	<path d="M39.5,20.7c0.1-1.5,1.1-2.1,2.6-2.1c1.1,0,2.3,0.4,2.3,2.1V24c0,0.2,0.1,0.4,0.4,0.5c0,0,0.1,0,0.1,0c0.1,0,0.2,0,0.2,0
		v0.7c-0.2,0-0.3,0.1-0.5,0c-0.8,0-0.9-0.5-0.9-1.1l0,0c-0.4,0.9-1.4,1.4-2.3,1.3c-1.2,0-2.2-0.6-2.2-1.9c0-1.8,1.8-1.9,3.4-2.1
		c0.6-0.1,1-0.2,1-0.9c0-1.1-0.8-1.3-1.7-1.3s-1.7,0.5-1.7,1.5L39.5,20.7z M43.7,21.6L43.7,21.6c-0.1,0.2-0.5,0.2-0.7,0.3
		c-1.3,0.2-3,0.2-3,1.5c0,0.7,0.7,1.3,1.4,1.3c0,0,0,0,0,0c1.1,0.1,2.1-0.7,2.2-1.9c0,0,0-0.1,0-0.1L43.7,21.6z"/>
	<path d="M48.5,19.4h-1.3v5.7h-0.8v-5.7h-1.1v-0.7h1.1v-0.6c0-1.1,0.3-1.9,1.5-1.9c0.2,0,0.4,0,0.7,0V17c-0.2,0-0.4-0.1-0.6-0.1
		c-0.9,0-0.8,0.5-0.8,1.2v0.6h1.3V19.4z"/>
	<path d="M50.9,18.7h1.3v0.7h-1.3v4.3c0,0.5,0.1,0.8,0.6,0.9c0.2,0,0.5,0,0.7,0v0.7h-0.7c-1,0-1.4-0.3-1.4-1.4v-4.4H49v-0.7h1.1
		v-1.9h0.8L50.9,18.7z"/>
	<path d="M57.2,20.6c0-0.8-0.7-1.4-1.5-1.4c0,0-0.1,0-0.1,0c-0.7,0-1.5,0.3-1.5,1.1s0.8,1,1.3,1.1l1,0.2c0.9,0.1,1.8,0.7,1.8,1.8
		c0,1.4-1.4,1.9-2.6,1.9c-1.3,0.1-2.4-0.8-2.5-2c0-0.1,0-0.1,0-0.2h0.8c0,0.9,0.8,1.7,1.8,1.6c0,0,0.1,0,0.1,0
		c0.7,0,1.8-0.3,1.8-1.2c0-0.7-0.7-1-1.4-1.2L55,22c-1-0.3-1.8-0.6-1.8-1.7c0-1.3,1.3-1.8,2.4-1.8c1.1-0.1,2.2,0.7,2.3,1.8
		c0,0.1,0,0.2,0,0.2L57.2,20.6z"/>
	<path d="M24.6,33c0-0.8-0.7-1.4-1.5-1.4c0,0-0.1,0-0.1,0c-0.7,0-1.5,0.3-1.5,1.1s0.8,0.9,1.3,1.1l1,0.2c1,0,1.8,0.8,1.8,1.8
		c0,1.4-1.4,1.9-2.6,1.9c-1.3,0.2-2.4-0.7-2.6-2c0-0.1,0-0.2,0-0.3h0.8c0,0.9,0.8,1.6,1.7,1.6c0,0,0.1,0,0.1,0
		c0.7,0,1.8-0.3,1.8-1.2c0-0.7-0.7-1-1.4-1.2l-1-0.2c-1-0.3-1.8-0.6-1.8-1.7c0-1.3,1.3-1.8,2.4-1.8c1.2-0.1,2.2,0.7,2.3,1.8
		c0,0.1,0,0.1,0,0.2L24.6,33z"/>
	<path d="M27.3,34.6c-0.1,1.2,0.8,2.4,2,2.5c0,0,0.1,0,0.1,0c1,0,1.8-0.7,2-1.6h0.8c-0.2,1.4-1.4,2.4-2.8,2.3c-2,0-2.9-1.6-2.9-3.4
		s0.9-3.4,2.9-3.4s2.9,1.8,2.8,3.6H27.3z M31.5,33.9c0.1-1.2-0.8-2.2-2-2.3c-1.2,0.1-2.1,1.1-2.1,2.3H31.5z"/>
	<path d="M33.5,31.2h0.7v1.5l0,0c0.4-1,1.3-1.7,2.4-1.6v0.8c-1.2-0.1-2.3,0.8-2.4,2c0,0.1,0,0.2,0,0.3v3.4h-0.8L33.5,31.2z"/>
	<polygon points="37.1,31.2 38,31.2 40,36.8 40,36.8 42,31.2 42.8,31.2 40.4,37.6 39.6,37.6 	"/>
	<path d="M43.7,28.7h0.8V30h-0.8V28.7z M43.7,31.2h0.8v6.4h-0.8V31.2z"/>
	<path d="M50.6,33.2c-0.1-0.9-0.9-1.6-1.8-1.5c-1.5,0-2.2,1.4-2.2,2.7s0.8,2.7,2.2,2.7c1,0,1.8-0.8,1.9-1.8h0.8
		c-0.1,1.4-1.2,2.5-2.6,2.5c-2,0-3-1.5-3-3.4s1-3.4,3-3.4c1.3-0.1,2.5,0.9,2.6,2.2c0,0,0,0,0,0H50.6z"/>
	<path d="M53.1,34.6c-0.1,1.2,0.8,2.4,2,2.5c0,0,0.1,0,0.1,0c1,0,1.8-0.7,2-1.6H58c-0.2,1.4-1.4,2.4-2.8,2.3c-2,0-2.9-1.6-2.9-3.4
		s0.9-3.4,2.9-3.4s2.9,1.8,2.8,3.6H53.1z M57.2,33.9c0.1-1.2-0.8-2.2-2-2.3c-1.2,0.1-2.1,1.1-2.1,2.3H57.2z"/>
	<path d="M105.1,21.3c0,11.7-9.5,21.3-21.3,21.3S62.6,33,62.6,21.3S72.1,0,83.8,0C95.6,0,105.1,9.5,105.1,21.3L105.1,21.3"/>
	<path class="st0" d="M69.8,19.6c0-0.9,0.5-1.7,1.2-2.1c0.8-0.4,1.7-0.6,2.6-0.5c1.9,0,3.7,0.4,3.7,2.7v3.4c0,0.7,0.1,1.4,0.3,2
		h-2.6c-0.1-0.2-0.1-0.5-0.2-0.8c-0.7,0.7-1.6,1-2.6,1c-1.5,0-2.7-0.8-2.7-2.4c0-2.6,2.8-2.4,4.6-2.8c0.4-0.1,0.7-0.2,0.7-0.7
		s-0.7-0.8-1.2-0.8c-0.6-0.1-1.2,0.4-1.3,1L69.8,19.6z M73.2,23.8c1.2,0,1.7-0.7,1.6-2.4c-0.5,0.2-1.1,0.3-1.6,0.4
		c-0.6,0.1-1.1,0.4-1.1,1S72.6,23.7,73.2,23.8"/>
	<polygon class="st0" points="87.9,25.1 85.3,25.1 84,19.9 84,19.9 82.8,25.1 80.1,25.1 77.6,17.2 80.3,17.2 81.6,22.3 81.6,22.3 
		82.8,17.2 85.2,17.2 86.4,22.3 86.4,22.3 87.8,17.2 90.4,17.2 	"/>
	<path class="st0" d="M92.9,22.5c0,0.3,0.2,0.7,0.4,0.9c0.3,0.2,0.6,0.3,1,0.3c0.5,0,1.2-0.2,1.2-0.8s-0.8-0.7-1.3-0.8
		c-1.6-0.4-3.7-0.5-3.7-2.6c0-1.9,2.1-2.4,3.6-2.4c1.7,0,3.6,0.5,3.7,2.6h-2.5c0-0.3-0.1-0.5-0.3-0.7c-0.3-0.1-0.5-0.2-0.8-0.2
		c-0.4,0-1.1,0-1.1,0.6c0,0.8,1.8,0.9,2.9,1.1c1.1,0.1,2,1,2,2.1c0,2.1-2,2.8-3.8,2.8s-3.8-0.6-3.9-2.8L92.9,22.5z"/>
</g>
</svg>
